<svg id="Calque_1" data-name="Calque 1" xmlns="http://www.w3.org/2000/svg" viewBox="0 0 152 152"><defs><style>.cls-1{fill:#969800;}.cls-2{fill:#dedc00;}.cls-3{fill:#8a754f;}.cls-4{fill:#a48a7b;}.cls-5{fill:#634e42;}.cls-6{fill:#625546;}.cls-13,.cls-7{fill:#9d9d9c;}.cls-7{opacity:0.5;}.cls-8{fill:#6c5649;}.cls-9{fill:#7b6a58;}.cls-10{fill:#563634;}.cls-11{fill:#56afe3;}.cls-12{fill:#1d1d1b;}.cls-13{opacity:0.7;}</style></defs><path class="cls-1" d="M19,111.85l.4,9.65s9.3,29.48,55.7,29.56,53.53-28.78,53.53-28.78q.65-5.27,1.3-10.55Z"/><ellipse class="cls-2" cx="74.5" cy="111.22" rx="55.47" ry="33.63"/><path class="cls-3" d="M36,73.35s2.35,10.25.7,15.47S31.76,108,31.76,108s1.52,2.59,7.05,3.3,19.4.82,20.46,0S68,95.22,68,95.22L62.21,74.29s-2.12-3.41-8.47-3.18S38.11,72.17,37.4,72.29,36,73.35,36,73.35Z"/><ellipse class="cls-4" cx="49.04" cy="73.96" rx="13.17" ry="3.03"/><ellipse class="cls-5" cx="48.51" cy="73.67" rx="10.94" ry="1.79"/><path class="cls-6" d="M64.27,102.64c-.85-3.55-2.42-6.8-5.23-4.48-5.3,4.35-10.65,6.11-16.94,5.23a14.14,14.14,0,0,1-8.16-4.17c-1.18,4.7-2.18,9-2.18,9s1.52,2.59,7.05,3.3,19.4.82,20.46,0C59.82,111.06,62.16,106.71,64.27,102.64Z"/><path class="cls-7" d="M97.6,75.49c-.8-.54-5-2-5.49-.77s1.7,3.79,1.7,3.79S89,81.38,91.39,84.69a36.77,36.77,0,0,0,5.82,6,1.18,1.18,0,0,0,.26,2.13c1.76.91,5.07-.2,5.07-.2a5.83,5.83,0,0,0,2.79,3.84c2.4,1.34,7.26-2.13,7.26-2.13s4.43,2.91,6.35,3.51,6.62-3.48,6.62-3.48a4.25,4.25,0,0,0,3.19,2.16c2.32.31,5.64-2.89,5.08-4.94s-.83-2.93-.83-2.93,3.45,1.35,3.8,0-1.86-5.43-1.86-5.43.72-.5.38-1.14a5.39,5.39,0,0,0-3.44-1.36c-.46.25-.81-1-.81-1S130,79,129.45,79s-.91-3.26-1.77-3.84-5.21-2.48-5.21-2.48-1.38-4.27-3.9-5.14-5.08-.36-6.38,1.27-3.47-.74-4.73-.89-5.58,1.66-5,2.82a3.68,3.68,0,0,1,.39,2.15,7.85,7.85,0,0,0-3.08-1.6,2.17,2.17,0,0,0-2.58,1.52A9.52,9.52,0,0,0,97.6,75.49Z"/><polygon class="cls-8" points="56.51 75.46 100.16 75.46 98.49 117.54 57.57 117.54 56.51 75.46"/><polygon class="cls-9" points="106.6 71.88 104.66 114.06 98.49 117.54 100.16 75.46 106.6 71.88"/><polygon class="cls-10" points="71.41 70.49 56.51 75.46 100.16 75.46 106.6 71.88 71.41 70.49"/><rect class="cls-11" x="77.94" y="87.51" width="18.78" height="4.14"/><rect class="cls-11" x="77.94" y="93.78" width="18.78" height="4.14"/><rect class="cls-11" x="77.94" y="99.24" width="18.78" height="4.14"/><rect class="cls-11" x="77.94" y="104.71" width="18.78" height="4.14"/><rect class="cls-11" x="77.94" y="110.18" width="18.78" height="4.14"/><rect class="cls-9" x="60.03" y="98.98" width="15.17" height="18.56"/><rect class="cls-12" x="61.71" y="100.52" width="6" height="17.02"/><rect class="cls-12" x="68.5" y="100.52" width="6" height="17.02"/><path class="cls-13" d="M27.69,8c-.34-.62-2.9-2.83-3.92-2s-.71,3.35-.71,3.35-5.38,1-5.25,4.11a20.22,20.22,0,0,0,1.36,6.1s-1.84.55-.94,1.7,4.13,1.14,4.13,1.14A3.79,3.79,0,0,0,22.49,26c1.18,1.64,6.9.22,6.9.22s1.94,3.36,3.13,4.31,7.12-1,7.12-1A2.35,2.35,0,0,0,41,32.05c1.66.83,6-.77,6.68-2.48s.93-2.46.93-2.46,2,1.92,3,.95,1.47-4.64,1.47-4.64.83-.19.91-.77-1.5-2-2-1.92-.12-.94-.12-.94-.43-.91-.88-1,1-2.73.67-3.4a37.4,37.4,0,0,0-2.79-3.22s1.22-3.63-.31-4.94a5.35,5.35,0,0,0-5.73-.66c-1.91.93-2.35-1.45-3.27-1.89s-5.32-.14-5.49.89a3.53,3.53,0,0,1-.85,1.74,4.19,4.19,0,0,0-1.58-2,2.56,2.56,0,0,0-2.86.51A8.89,8.89,0,0,0,27.69,8Z"/><path class="cls-7" d="M79.22,13.38C78.4,12.42,73.31,9.3,72,11s.32,5.8.32,5.8-8.26,2.89-6.68,8.17a39.83,39.83,0,0,0,4.83,10s-2.74,1.36-.79,3.08,7.15,1,7.15,1A7,7,0,0,0,78.66,45c2.6,2.48,11.2-1.26,11.2-1.26S94.44,49,96.78,50.3s11-3.33,11-3.33a4.68,4.68,0,0,0,3.27,3.84c3,1,9.36-2.73,9.69-5.77s.43-4.36.43-4.36,4.05,2.76,5.27.89.35-8.16.35-8.16,1.26-.52,1.14-1.52-3.29-3-4-2.76-.6-1.56-.6-1.56-1.09-1.42-1.85-1.46.5-4.84-.39-5.88a74.53,74.53,0,0,0-5.89-4.78s.39-6.4-2.64-8.24a8.56,8.56,0,0,0-9.52.25c-2.68,2-4.42-1.9-6.08-2.42s-8.64,1-8.46,2.79A5.68,5.68,0,0,1,87.88,11a8.48,8.48,0,0,0-3.42-3,3.8,3.8,0,0,0-4.39,1.53A14.49,14.49,0,0,0,79.22,13.38Z"/><path class="cls-7" d="M38.71,64.85c-.72.85-2.66,5.76-1,6.64s5-1.11,5-1.11S46.52,77.19,50.9,75a35.16,35.16,0,0,0,8-5.66s1.61,2.2,2.82.24-.27-6.39-.27-6.39a6.15,6.15,0,0,0,5.08-2.47c1.78-2.63-2.82-9.62-2.82-9.62s3.85-4.77,4.65-7S63.72,35,63.72,35a4.08,4.08,0,0,0,2.85-3.42c.41-2.81-3.83-7.8-6.54-7.66s-3.89.26-3.89.26,1.79-3.95,0-4.74-7.2.87-7.2.87-.65-1-1.51-.78-2.12,3.31-1.79,3.95-1.27.75-1.27.75-1.08,1.16-1,1.83-4.31.26-5.09,1.19A65.94,65.94,0,0,0,35,33.05s-5.67.58-6.82,3.5a7.64,7.64,0,0,0,1.69,8.3c2.17,2.06-1,4.14-1.18,5.67s2.21,7.42,3.75,7a5.1,5.1,0,0,1,2.84.08A7.38,7.38,0,0,0,33.15,61a3.38,3.38,0,0,0,2,3.62A12.8,12.8,0,0,0,38.71,64.85Z"/></svg>