<svg id="Calque_1" data-name="Calque 1" xmlns="http://www.w3.org/2000/svg" viewBox="0 0 152 152"><defs><style>.cls-1{fill:#b17f4a;}.cls-2{fill:#56a060;}.cls-3{fill:#7d4e24;}.cls-4{fill:#95c11f;}.cls-5{fill:#b4cc04;opacity:0.7;}.cls-6{fill:#f1d163;}.cls-7{fill:#ca9e67;}.cls-8{fill:none;stroke:#b17f4a;stroke-miterlimit:10;stroke-width:0.25px;}.cls-9{fill:#683c11;}</style></defs><path class="cls-1" d="M19.82,110.4l.39,9.59s9.26,29.34,55.42,29.42,53.26-28.63,53.26-28.63l1.29-10.5Z"/><ellipse class="cls-2" cx="75" cy="109.77" rx="55.19" ry="33.46"/><path class="cls-3" d="M40.49,70.32,40.07,96.2l-5.93,2.36h7.3l.84,4,2.36-4.11,5.18-.15L45.63,96.5l.53-17.13a18.81,18.81,0,0,0,4.42-4c2.05-2.6,2.51-9,2.51-9H51.42s-1,4.41-1.83,5.48a44.88,44.88,0,0,1-3.66,3.51l.16-9.3Z"/><path class="cls-4" d="M29.43,29.06s-6.79-.31-8.77,7.76S19.9,49,19.9,49s-3.5-.61-4,1.53.31,10.5,4.42,10,4.41,0,4.41,0-3.35,3.48-.91,5.77,3.2,10.2,11.42,8.83A20.59,20.59,0,0,0,47.76,68s6.24,1.68,7.61.31,9.75-5.33,9.75-9a22.38,22.38,0,0,0-1.37-7.15,15.09,15.09,0,0,0,1.37-7.92A10.49,10.49,0,0,0,61,36.67s1.06-4.42-.46-7.61-9.9-5-12.38-4.77-2.54.51-2.54.51a3.18,3.18,0,0,0-2.49-2.44c-2.18-.51-7.61.36-9,1.57A68.06,68.06,0,0,0,29.43,29.06Z"/><path class="cls-5" d="M48.17,24.29c-2.49.25-2.54.51-2.54.51a3.18,3.18,0,0,0-2.49-2.44c-2.18-.51-7.61.36-9,1.57a68.06,68.06,0,0,0-4.68,5.13s-6.79-.31-8.77,7.76S19.9,49,19.9,49s-2.28-.39-3.4.58a6.83,6.83,0,0,0,6,2.77c4.87-.45,11.65-6.54,11.65-6.54s5.86,1.37,8,0,3-5,3-5,4.57.61,6.85-1.37,4.11-11,2.9-12.48c-.35-.44-1-1.17-1.77-2A17.23,17.23,0,0,0,48.17,24.29Z"/><path class="cls-3" d="M88.3,64.44,88,83.56l-4.38,1.75H89l.61,3,1.75-3,3.82-.11L92.1,83.79l.39-12.66a13.84,13.84,0,0,0,3.27-3c1.52-1.91,1.85-6.64,1.85-6.64H96.38A17.87,17.87,0,0,1,95,65.56a31.55,31.55,0,0,1-2.71,2.59l.12-6.86Z"/><path class="cls-4" d="M80.13,34s-5-.23-6.48,5.74-.56,9-.56,9-2.59-.45-2.93,1.12.23,7.77,3.26,7.43,3.27,0,3.27,0-2.48,2.58-.68,4.26,2.36,7.54,8.44,6.53a15.21,15.21,0,0,0,9.22-5.29S98.29,64,99.3,63s7.2-3.94,7.2-6.64a16.61,16.61,0,0,0-1-5.29,11.08,11.08,0,0,0,1-5.85,7.74,7.74,0,0,0-3-5.63s.79-3.26-.33-5.62S95.81,30.24,94,30.42s-1.87.38-1.87.38A2.35,2.35,0,0,0,90.26,29c-1.61-.38-5.62.26-6.67,1.16A50,50,0,0,0,80.13,34Z"/><path class="cls-5" d="M94,30.42c-1.83.19-1.87.38-1.87.38A2.35,2.35,0,0,0,90.26,29c-1.61-.38-5.62.26-6.67,1.16A50,50,0,0,0,80.13,34s-5-.23-6.48,5.74-.56,9-.56,9a3.69,3.69,0,0,0-2.52.42,5.06,5.06,0,0,0,4.43,2c3.6-.33,8.61-4.84,8.61-4.84s4.33,1,5.9,0,2.25-3.71,2.25-3.71,3.38.45,5.07-1,3-8.1,2.13-9.23c-.26-.32-.74-.86-1.3-1.46A12.77,12.77,0,0,0,94,30.42Z"/><path class="cls-6" d="M27.89,127.2c9.7,9.61,27.17,16,47.11,16,30.48,0,55.19-15,55.19-33.46,0-6.44-3-12.45-8.2-17.55a111.14,111.14,0,0,0-20-1.8C67.64,90.42,38.48,105.8,27.89,127.2Z"/><path class="cls-3" d="M65.22,115l-.47,6.22s-1.55-.27-2,.17a1.55,1.55,0,0,0,0,2.09c.56.44,1.26.71,1.06,1.1s-1.75,3-1.75,3.12a1.43,1.43,0,0,0,.57,1.6c.86.51,3.42.39,3.42.39a3.72,3.72,0,0,1,1.63,2.68,2.46,2.46,0,0,0,1.25,2.2,12,12,0,0,0,2.56-1.88c1-1.07,2.26-2.91,3-2.85s2-.57,4.13.3,3.48,2.26,4.05,1.78a4.28,4.28,0,0,0,.77-2.56,7.32,7.32,0,0,0-.59-2.14c-.24-.15.23-1.13.23-1.13a2.86,2.86,0,0,0,.93-.83,1.78,1.78,0,0,0-.48-2.71c-1.46-.86-1.64-.68-1.64-.68l0-6.3Z"/><ellipse class="cls-7" cx="73.55" cy="114.97" rx="8.36" ry="4.59"/><ellipse class="cls-8" cx="73.49" cy="114.89" rx="6.87" ry="3.96"/><ellipse class="cls-8" cx="73.34" cy="114.89" rx="3.49" ry="2.16"/><ellipse class="cls-8" cx="73.23" cy="114.9" rx="1.27" ry="0.76"/><polygon class="cls-9" points="71.61 118.36 70.52 119.89 71.45 121.85 72.44 120.2 71.61 118.36"/><polygon class="cls-9" points="79.75 116.6 80.9 117.69 81.62 118.86 81.62 116.74 79.75 116.6"/><path class="cls-3" d="M111.6,95.78l.44,5.81s1.44-.25,1.92.16a1.47,1.47,0,0,1,0,2c-.53.41-1.18.66-1,1s1.63,2.81,1.63,2.92a1.35,1.35,0,0,1-.52,1.5,8.84,8.84,0,0,1-3.19.36,3.44,3.44,0,0,0-1.53,2.49,2.3,2.3,0,0,1-1.17,2.06,11.11,11.11,0,0,1-2.38-1.75c-1-1-2.11-2.72-2.84-2.66s-1.91-.53-3.85.27-3.25,2.11-3.78,1.67a3.93,3.93,0,0,1-.72-2.39,6.76,6.76,0,0,1,.55-2c.23-.14-.22-1-.22-1a2.85,2.85,0,0,1-.86-.78,1.65,1.65,0,0,1,.45-2.52c1.36-.81,1.52-.64,1.52-.64l0-5.89Z"/><ellipse class="cls-7" cx="103.82" cy="95.78" rx="7.8" ry="4.29"/><ellipse class="cls-8" cx="103.88" cy="95.71" rx="6.41" ry="3.7"/><ellipse class="cls-8" cx="104.02" cy="95.71" rx="3.26" ry="2.02"/><ellipse class="cls-8" cx="104.12" cy="95.72" rx="1.19" ry="0.71"/><polygon class="cls-9" points="105.64 98.95 106.66 100.37 105.79 102.21 104.86 100.67 105.64 98.95"/><polygon class="cls-9" points="98.03 97.3 96.96 98.32 96.29 99.41 96.29 97.43 98.03 97.3"/></svg>