<svg id="Calque_1" data-name="Calque 1" xmlns="http://www.w3.org/2000/svg" viewBox="0 0 152 152"><defs><style>.cls-1{fill:#878787;}.cls-2{fill:#cbc5b7;}.cls-3{fill:#9d9d9c;}.cls-4{fill:#95c11f;}.cls-5{fill:#634e42;}.cls-6{fill:#b17f4a;}.cls-7{fill:#ca9e67;}.cls-8{fill:#936037;}.cls-9{fill:#063;}.cls-10{fill:#008d36;}.cls-11{fill:#706f6f;}.cls-12{fill:#3c3c3b;}.cls-13{fill:#00a19a;}.cls-14{fill:#be1622;}.cls-15{fill:#009640;}.cls-16{fill:#c4b300;}.cls-17{fill:#fcea10;}.cls-18{fill:#1d1d1b;}.cls-19{fill:#f39200;}.cls-20{fill:#2fac66;}.cls-21{fill:#575756;}</style></defs><path class="cls-1" d="M21.22,110.1l.39,9.59S30.87,149,77,149.11s53.26-28.63,53.26-28.63l1.29-10.5Z"/><ellipse class="cls-2" cx="76.4" cy="109.47" rx="55.19" ry="33.46"/><path class="cls-3" d="M60.43,47.34l2.75,56.38,5.39,4.63s14.51,3.36,23.31,1.38,9.16-4,9.16-4L104.73,48Z"/><path class="cls-4" d="M41.63,106.93c.12-.72.06-2.2-1-2.38s-1.53.1-2.22-.48-2.08-2.26-2.95-2.28-2.8-.06-3.57,1.85-.24,3.53.51,4a4.18,4.18,0,0,0,3.16.54c.83-.34.91-.68,1.84-.46a7.25,7.25,0,0,0,2.7.2A4.65,4.65,0,0,0,41.63,106.93Z"/><path class="cls-5" d="M41.1,106.63s.81.24.95.73.24.86.45.7.16-.93.16-.93-1.31-.66-1.43-.66S41.1,106.63,41.1,106.63Z"/><path class="cls-6" d="M45.1,108.71s2.34,3.17,4.4,4.05,2.66,1.7,3.69,1.66,6-1.07,7.29-1.07,6.11-.2,7.26-.67,2.58-2,2.5-2.7a5,5,0,0,0-2.46-4.44c-2.38-1.31-4.88-3.29-9.56-3.49s-7.85-.4-10.11,1-2.65,2.78-2.77,3.39S45.1,108.71,45.1,108.71Z"/><path class="cls-7" d="M51.44,113.19s-1.11-1.19-.47-2.3,3.33-4.28,5.07-4.76,2.9-1.65,6.62-1.06,5.55,1.54,6.23,2.45,1.74,2.3.87,3.13a6.61,6.61,0,0,1-5,2.07A58.85,58.85,0,0,0,56,113.87c-.67.19-2.81.91-3.33.63A5.69,5.69,0,0,1,51.44,113.19Z"/><path class="cls-8" d="M45.1,108.61l5.67,3.07a4.32,4.32,0,0,0,.9,1.81c.78,1,.67.76.67.76l-3.83-2.06A31.34,31.34,0,0,1,45.85,110C45.6,109.6,45.1,108.61,45.1,108.61Z"/><circle class="cls-5" cx="57.65" cy="111.9" r="0.26"/><ellipse class="cls-5" cx="63.75" cy="107.69" rx="0.57" ry="0.41"/><circle class="cls-5" cx="67.37" cy="110.21" r="0.23"/><circle class="cls-5" cx="67.55" cy="108.27" r="0.18"/><circle class="cls-5" cx="54.11" cy="109.08" r="0.13"/><circle class="cls-5" cx="54.9" cy="109.08" r="0.13"/><circle class="cls-9" cx="111.35" cy="109.19" r="1.5"/><circle class="cls-9" cx="116.22" cy="108.07" r="1.32"/><circle class="cls-10" cx="109.85" cy="110.89" r="1.5"/><circle class="cls-10" cx="113.61" cy="107.51" r="0.76"/><path class="cls-11" d="M69.05,17s-2.08.18-.65,1.37S102.53,48,102.53,48l3.39-1.57,1,.64a3.13,3.13,0,0,0,.65-2.61c-.41-1.31-3-1.73-3-1.73s-4.1-9.93-9.34-12.67S80.61,19.57,76.4,18.56s-7-1.61-7-1.61"/><path class="cls-12" d="M105.26,46.46s-.06-1.32,0-2-3.15-2.77-3.15-2.77S95.21,36.46,89.44,31c-4.85-4.55-17.6-11.46-21.53-13.54,0,.2.06.46.49.82,1.22,1,25.5,22.18,32.33,28.14Z"/><path class="cls-13" d="M80.35,40.76l-5.71.33.39-3s4.52-.45,5.63-2.16,5.18-4.68,5.92-3.47,1.62,1,2.09,1.77-1.19,1.76-.47,2a14.83,14.83,0,0,0,2,.4l-.55,1.47Z"/><path class="cls-14" d="M70.15,37.79s-1.67-1.72-2.86-.26a11,11,0,0,0-1.75,3.18l1.43,2,1.27.54,7.47-1.49a2.72,2.72,0,0,0,.53-2.62c-.56-1.37-2.2-2.17-2.91-2S70.15,37.79,70.15,37.79Z"/><path class="cls-15" d="M70.83,36.52s-1.16-.42-1-.21a1.7,1.7,0,0,1,0,.8l-.38.2.75.48,0,.3a.76.76,0,0,0,.71-.18c.28-.3.23-.49.4-.32A4.4,4.4,0,0,0,72.3,38s-.14-.3,0-.47.64-.22.64-.22l-.24-.37-.53-.19s.3-.26,0-.2-.71.17-.71.17l-.29-.17-.2.08Z"/><path class="cls-16" d="M65.54,36.35s-.39,3,.89,4.69,5.87,5.42,5.87,5.42l-5.44-.53L63.29,40l1.56-3.85Z"/><path class="cls-17" d="M63.46,46.23s-2.82-.52-3.14-4.2,1.31-5.71,2.58-5.75S64.33,36,64.33,36l.36,1.35s-.88,2.54,0,3.78,1.7,3.83,3.41,5-4.41,1-4.41,1Z"/><path class="cls-18" d="M65.6,33.35a1.47,1.47,0,0,0-.27.76A3.47,3.47,0,0,1,65,35.19l-.69.77.36,1.35a5.44,5.44,0,0,0,1.15-.9,15.19,15.19,0,0,1,.83-1.56c.18-.12,0-.74-.15-1S65.6,33.35,65.6,33.35Z"/><ellipse class="cls-19" cx="73.55" cy="44.49" rx="5.34" ry="4.76"/><path class="cls-20" d="M76.26,40.76a1.16,1.16,0,0,1,1.63-1,10.56,10.56,0,0,0,3,.46,13.39,13.39,0,0,0,3.09-1s.08-.87.68-.83a10.57,10.57,0,0,0,2.65-1l2.49-.37,5.52,2.47L103,46.1,101.2,48,77.33,46.74Z"/><path class="cls-1" d="M57.91,45.79S55.37,47,56.68,48.17s9.88,1.67,13.56,2,36.87-.71,36.87-.71,1.66-2.38,0-3.09S57.91,45.79,57.91,45.79Z"/><circle class="cls-11" cx="96.52" cy="104.07" r="8.48"/><circle class="cls-21" cx="97.18" cy="104.37" r="2.9"/><path class="cls-18" d="M72.79,41.32c-.12-.11-.62,0-.62,0l.13.21-.13.31s.24.18.31.15a1,1,0,0,1,.31,0l.12.35.15-.53s.51,0,.63,0-.18-.28-.18-.28l.18-.44-.66.23Z"/></svg>