<svg id="Calque_1" data-name="Calque 1" xmlns="http://www.w3.org/2000/svg" viewBox="0 0 152 152"><defs><style>.cls-1{fill:#1d71b8;}.cls-2{fill:#36a9e1;}.cls-3{fill:#b0dbd8;}.cls-4{fill:#154976;}.cls-5{fill:#007593;}.cls-6{fill:#3c3c3b;}.cls-7{fill:#575756;}.cls-8{fill:#878787;}.cls-9{fill:#9d9d9c;}.cls-10{fill:#c6c6c6;}.cls-11{fill:#f39200;}</style></defs><path class="cls-1" d="M18.11,111.29l.39,9.62S27.78,150.3,74,150.38s53.37-28.69,53.37-28.69c.43-3.51.86-7,1.3-10.52Z"/><ellipse class="cls-2" cx="73.4" cy="110.66" rx="55.3" ry="33.53"/><path class="cls-3" d="M50.35,87.61,50.23,89l.75.44a5.61,5.61,0,0,0,2.28,3.85c2,1.24,2.3.74,2.85,1.11a12.33,12.33,0,0,1,1.36,1.35c.55.51,7,4.1,7,4.1s1.37.61,2-.31,2.24-3.84,2.24-3.84.3-1.34-.35-1.79-7.18-4.19-7.18-4.19a3.92,3.92,0,0,1-1.57-.43c-.83-.44-.86-.88-1.74-1.54a6,6,0,0,0-2.39-1,3.79,3.79,0,0,0-2.09,0l-.93.35-1.25-.61Z"/><path class="cls-4" d="M50.27,89.46l1.83-3.13-1.38-.8a.47.47,0,0,0-.7.09,22.85,22.85,0,0,0-1.36,2.32s-.23.16,0,.57S50.27,89.46,50.27,89.46Z"/><path class="cls-5" d="M52.42,92.6l3.41-5.84a9.71,9.71,0,0,1,1.34.51,4.86,4.86,0,0,1,1.25.88c.2.29-1.05,2.82-1.5,3.55S55,94.13,55,94.13a7.76,7.76,0,0,1-1.23-.52,9.48,9.48,0,0,1-1.08-.71Z"/><path class="cls-6" d="M61.24,87.7A12.9,12.9,0,0,0,63.76,96a12.62,12.62,0,0,0,5.37,4c.85.36,7.41,3,12.7-.76a11.85,11.85,0,0,0,4.36-6.2,23.57,23.57,0,0,0,.36-7L82.4,89.38,78.27,94l-4.7.29-5.83-1.72Z"/><path class="cls-6" d="M61.8,86.49l3.35,3.59,1.94.79a5.25,5.25,0,0,1-.67-2.3c0-.15,0-.29,0-.43.08-3.27,3.17-6,7.13-6.24,4.12-.23,7.62,2.38,7.81,5.84a5.61,5.61,0,0,1-.22,1.83l2-1.47,2.62-3.23c-2-4-6.81-6.68-12.31-6.38S63.22,82.14,61.8,86.49Z"/><path class="cls-7" d="M86.54,85.77c-.32-5.86-6.26-10.3-13.26-9.92-6.71.38-12,5.05-12.1,10.6,0,.24,0,.48,0,.73.33,5.86,6.27,10.3,13.27,9.91S86.87,91.64,86.54,85.77Zm-12.47,6c-4.12.23-7.62-2.38-7.81-5.84,0-.14,0-.28,0-.43.08-3.27,3.17-6,7.13-6.24C77.5,79,81,81.65,81.19,85.1S78.19,91.54,74.07,91.77Z"/><path class="cls-8" d="M70.82,66.8l.23,24.62,1.69.36L73,65.13Z"/><path class="cls-9" d="M70.22,91.14l9.22-16.2-9-9.37L68.64,66.8l8.26,8.7L68.61,90.18Z"/><path class="cls-10" d="M59.26,61.16s2.15-7.51,6.56-9.18S81.67,50.19,86,50.19s3.81-.47,3.81-.47,1.43.12,1.31.71S75.71,70.57,67.37,69.38s-11.33-3.93-11-8a46.86,46.86,0,0,0,0-7.87,4.46,4.46,0,0,1-2.47,1.91,10.81,10.81,0,0,1-3.34.12l-1.9-2.51s3.21-3.45,4.17-4.88,3.93-1.07,4.53,0S59.26,61.16,59.26,61.16Z"/><path class="cls-7" d="M66.41,59.41S64.82,64,68,65.21s6.68-1.75,10.25-5.16A79.16,79.16,0,0,0,85,52.62S74.6,53.69,71.1,55.68A14.52,14.52,0,0,0,66.41,59.41Z"/><path class="cls-11" d="M49.21,52.62,51,55.36a5.22,5.22,0,0,1-2.78,1.35,4.27,4.27,0,0,1-2.42-.44Z"/><path class="cls-8" d="M52.71,51s.87,1.35,1.86.91a1,1,0,0,0,.6-1.39,13,13,0,0,0-1.79,0A1.28,1.28,0,0,0,52.71,51Z"/><path class="cls-6" d="M55.52,118.08a13,13,0,0,0,8.54,1.39,12.73,12.73,0,0,0,6-3c.7-.61,6-5.33,4.91-11.74A11.83,11.83,0,0,0,71.33,98a24.05,24.05,0,0,0-6.13-3.41l1.15,5.2,2.29,5.72-1.81,4.35-4.11,4.47Z"/><path class="cls-6" d="M54.69,117l4.69-1.42L61,114.23a5.43,5.43,0,0,1-2.37-.41c-.13-.06-.26-.12-.38-.19-2.9-1.51-4-5.5-2.46-9.14,1.61-3.8,5.5-5.79,8.68-4.44a5.36,5.36,0,0,1,1.55,1l-.44-2.44-1.74-3.78c-4.47,0-9,3.17-11.16,8.24S51.41,113.85,54.69,117Z"/><path class="cls-7" d="M65,94.52c-5.41-2.3-12,1.08-14.75,7.53-2.63,6.19-.75,13,4.18,15.53a5.51,5.51,0,0,0,.65.31c5.41,2.3,12-1.08,14.75-7.53S70.35,96.81,65,94.52Zm-.12,13.84c-1.61,3.8-5.5,5.79-8.68,4.44l-.39-.18c-2.9-1.52-4-5.51-2.46-9.15,1.61-3.8,5.5-5.79,8.68-4.44S66.44,104.56,64.83,108.36Z"/><path class="cls-6" d="M89.52,99.36a12.86,12.86,0,0,0,2.53,8.27,12.66,12.66,0,0,0,5.36,4c.86.36,7.42,3,12.71-.76a11.86,11.86,0,0,0,4.36-6.19,24,24,0,0,0,.36-7L110.68,101l-4.13,4.57-4.7.3L96,104.19Z"/><path class="cls-6" d="M90.09,98.15l3.34,3.59,1.95.8a5.44,5.44,0,0,1-.68-2.31c0-.14,0-.29,0-.43.08-3.27,3.17-6,7.12-6.24,4.12-.23,7.62,2.39,7.81,5.84a5.12,5.12,0,0,1-.22,1.83l2-1.47L114,96.53c-2-4-6.82-6.68-12.31-6.38S91.51,93.81,90.09,98.15Z"/><path class="cls-7" d="M114.83,97.43c-.33-5.86-6.26-10.3-13.27-9.91-6.71.37-12,5-12.09,10.6a5.77,5.77,0,0,0,0,.72c.32,5.87,6.26,10.31,13.26,9.92S115.16,103.3,114.83,97.43Zm-12.47,6c-4.13.23-7.63-2.38-7.82-5.84a2.94,2.94,0,0,1,0-.42c.08-3.27,3.17-6,7.12-6.25,4.12-.22,7.62,2.39,7.81,5.85S106.48,103.21,102.36,103.43Z"/><path class="cls-6" d="M92.58,111.91a13,13,0,0,0,2.53,8.28,12.71,12.71,0,0,0,5.37,4c.85.36,7.41,3,12.7-.77a11.81,11.81,0,0,0,4.36-6.19,24,24,0,0,0,.36-7l-4.16,3.34-4.12,4.57-4.71.29-5.82-1.72Z"/><path class="cls-6" d="M93.15,110.71l3.35,3.59,1.94.79a5.25,5.25,0,0,1-.67-2.3c0-.15,0-.29,0-.43.08-3.27,3.17-6,7.12-6.24,4.13-.23,7.63,2.38,7.82,5.84a5.61,5.61,0,0,1-.22,1.83l2-1.47,2.62-3.23c-2-4-6.81-6.69-12.31-6.38S94.57,106.36,93.15,110.71Z"/><path class="cls-7" d="M117.89,110c-.32-5.87-6.26-10.31-13.26-9.92-6.71.38-12,5.05-12.1,10.6,0,.24,0,.48,0,.73.33,5.86,6.26,10.3,13.27,9.91S118.22,115.86,117.89,110Zm-12.47,6c-4.13.23-7.62-2.39-7.81-5.84,0-.14,0-.29,0-.43.08-3.27,3.17-6,7.12-6.24,4.13-.23,7.63,2.39,7.82,5.84S109.54,115.76,105.42,116Z"/><path class="cls-3" d="M46.37,108l-.84,1.12.41.77a5.59,5.59,0,0,0-.1,4.47c1,2.12,1.55,1.85,1.83,2.46a12.86,12.86,0,0,1,.44,1.87c.19.71,3.78,7.19,3.78,7.19s.85,1.24,1.91.82,3.94-2.07,3.94-2.07,1-1,.65-1.7-3.87-7.36-3.87-7.36a3.92,3.92,0,0,1-1.11-1.19c-.47-.81-.27-1.2-.66-2.23A6.07,6.07,0,0,0,51.28,110a3.94,3.94,0,0,0-1.78-1.11l-1-.19-.73-1.18Z"/><path class="cls-4" d="M45.33,109.51l3.2-1.69-.74-1.41a.46.46,0,0,0-.64-.29,22.48,22.48,0,0,0-2.38,1.25s-.28,0-.32.47S45.33,109.51,45.33,109.51Z"/><path class="cls-5" d="M45.49,113.3l6-3.15a8.9,8.9,0,0,1,.87,1.15,4.52,4.52,0,0,1,.59,1.41c0,.35-2.38,1.83-3.15,2.21S46.9,116,46.9,116a6.94,6.94,0,0,1-.76-1.09,9.15,9.15,0,0,1-.54-1.17C45.55,113.56,45.49,113.3,45.49,113.3Z"/><path class="cls-3" d="M92.69,92.73l-1.39-.19-.47.72a5.65,5.65,0,0,0-4,2.07c-1.35,1.94-.87,2.25-1.27,2.78a13,13,0,0,1-1.42,1.3c-.54.51-4.48,6.78-4.48,6.78s-.68,1.34.21,2.07,3.71,2.45,3.71,2.45,1.31.37,1.8-.25S90,103.52,90,103.52A3.72,3.72,0,0,1,90.5,102c.48-.8.92-.81,1.63-1.65A6,6,0,0,0,93.31,98a3.93,3.93,0,0,0,.12-2.1l-.3-.94.68-1.21Z"/><path class="cls-4" d="M90.84,92.56l3,2,.87-1.33a.47.47,0,0,0,0-.71A22.94,22.94,0,0,0,92.44,91s-.14-.24-.56,0S90.84,92.56,90.84,92.56Z"/><path class="cls-5" d="M87.59,94.53l5.65,3.72a9.33,9.33,0,0,1-.58,1.31,4.75,4.75,0,0,1-1,1.2c-.3.19-2.76-1.2-3.46-1.69s-2.33-2-2.33-2a7.11,7.11,0,0,1,.59-1.2,7,7,0,0,1,.77-1C87.4,94.7,87.59,94.53,87.59,94.53Z"/><path class="cls-8" d="M100.71,85.33,100.58,101l-1,.22-.15-17Z"/><path class="cls-9" d="M101.05,100.84,95.86,90.52l5-6,1,.79-4.65,5.54,4.67,9.35Z"/><path class="cls-10" d="M107.22,81.73S106,77,103.53,75.89s-8.92-1.14-11.34-1.14-2.14-.31-2.14-.31-.81.08-.74.46S98,87.73,102.66,87s6.37-2.5,6.17-5.08a34,34,0,0,1,0-5,2.63,2.63,0,0,0,1.39,1.22,5.29,5.29,0,0,0,1.88.07l1.07-1.59s-1.81-2.2-2.35-3.11a1.65,1.65,0,0,0-2.55,0C108,74.14,107.22,81.73,107.22,81.73Z"/><path class="cls-7" d="M103.2,80.62s.89,2.94-.9,3.7S98.54,83.2,96.53,81a49.19,49.19,0,0,1-3.78-4.73s5.84.68,7.81,1.95A8.82,8.82,0,0,1,103.2,80.62Z"/><path class="cls-11" d="M112.88,76.29l-1,1.75a2.9,2.9,0,0,0,1.57.86,2.22,2.22,0,0,0,1.36-.28Z"/><path class="cls-8" d="M110.91,75.25s-.49.86-1,.59a.72.72,0,0,1-.34-.89,6.63,6.63,0,0,1,1,0A.75.75,0,0,1,110.91,75.25Z"/></svg>